<?xml version="1.0" encoding="utf-8"?>
<!-- Generator: Adobe Illustrator 19.2.0, SVG Export Plug-In . SVG Version: 6.00 Build 0)  -->
<svg version="1.1" id="Layer_1" xmlns="http://www.w3.org/2000/svg" xmlns:xlink="http://www.w3.org/1999/xlink" x="0px" y="0px"
	 viewBox="0 0 208 208" style="enable-background:new 0 0 208 208;" xml:space="preserve">
<style type="text/css">
	.st0{fill:url(#SVGID_1_);}
	.st1{fill:url(#SVGID_2_);}
	.st2{fill:url(#SVGID_3_);}
	.st3{fill:url(#SVGID_4_);}
	.st4{fill:#323232;}
	.st5{fill:none;}
</style>
<g>
	
		<linearGradient id="SVGID_1_" gradientUnits="userSpaceOnUse" x1="72.5162" y1="649.5283" x2="132.843" y2="649.5283" gradientTransform="matrix(1 0 0 1 0 -582)">
		<stop  offset="3.921570e-03" style="stop-color:#4D312B"/>
		<stop  offset="0.5" style="stop-color:#895F21"/>
		<stop  offset="1" style="stop-color:#4D312B"/>
	</linearGradient>
	<path class="st0" d="M87.6,114.2h30.2c8.3,0,15.1-6.8,15.1-15.1V35.9c0-8.3-6.8-15.1-15.1-15.1H87.6c-8.3,0-15.1,6.8-15.1,15.1V99
		C72.5,107.4,79.3,114.2,87.6,114.2z"/>
	<g>
		
			<linearGradient id="SVGID_2_" gradientUnits="userSpaceOnUse" x1="49.1912" y1="734.0872" x2="158.427" y2="734.0872" gradientTransform="matrix(1 0 0 1 0 -582)">
			<stop  offset="3.921570e-03" style="stop-color:#4D312B"/>
			<stop  offset="0.5" style="stop-color:#895F21"/>
			<stop  offset="1" style="stop-color:#4D312B"/>
		</linearGradient>
		<path class="st1" d="M49.2,131.6v43.6c0,0,49.2,26.9,108.8,0v-44h0.1C154,129,97.6,100.3,49.2,131.6z"/>
		
			<linearGradient id="SVGID_3_" gradientUnits="userSpaceOnUse" x1="25.1786" y1="694.7999" x2="182.9215" y2="694.7999" gradientTransform="matrix(1 0 0 1 0 -582)">
			<stop  offset="1.351351e-02" style="stop-color:#462C20"/>
			<stop  offset="0.1114" style="stop-color:#4E3220"/>
			<stop  offset="0.2671" style="stop-color:#664321"/>
			<stop  offset="0.4604" style="stop-color:#8B5E22"/>
			<stop  offset="0.4838" style="stop-color:#906222"/>
			<stop  offset="0.5285" style="stop-color:#835822"/>
			<stop  offset="0.636" style="stop-color:#684521"/>
			<stop  offset="0.7458" style="stop-color:#553720"/>
			<stop  offset="0.8585" style="stop-color:#4A2F20"/>
			<stop  offset="0.9784" style="stop-color:#462C20"/>
		</linearGradient>
		<path class="st2" d="M104,115.1c0.2-1.5,0.2-3.1,0.1-4.7C104,112.1,104,113.6,104,115.1z"/>
		
			<linearGradient id="SVGID_4_" gradientUnits="userSpaceOnUse" x1="25.1285" y1="667.7722" x2="182.8714" y2="667.7722" gradientTransform="matrix(1 0 0 1 0 -582)">
			<stop  offset="3.921570e-03" style="stop-color:#4D312B"/>
			<stop  offset="0.5" style="stop-color:#895F21"/>
			<stop  offset="1" style="stop-color:#4D312B"/>
		</linearGradient>
		<path class="st3" d="M182.5,61.5c-3-15.6-24.8-30.3-41.9-14.8c-9.6,8.7-34.2,41.2-36.5,63.8c0.1,1.6,0,3.2-0.1,4.7
			c-0.1-1.5,0-3.1,0.1-4.7c-1.1-23.5-26.9-55.3-36.6-64c-17.2-15.4-38.9-0.4-42,15.2c-4.1,21.2,23.6,70,23.6,70
			c48.3-31.2,104.8-2.5,108.9-0.4C158.1,131.1,186.6,82.8,182.5,61.5z"/>
	</g>
	<g>
		<path class="st4" d="M74,51.6V35.3c0-7.1,5.8-12.9,12.9-12.9h31.6c7.1,0,12.9,5.8,12.9,12.9v20.3c0.8-1.2,1.7-2.3,2.8-3.4l0.1-0.1
			V35.3c0-8.7-7.1-15.8-15.8-15.8H86.9c-8.7,0-15.8,7.1-15.8,15.8V49C72.2,49.6,73.2,50.6,74,51.6z"/>
	</g>
	<g>
		<path class="st4" d="M121.2,72.8c-19.2-10.5-44-45.9-45.1-47.4l2.3-1.7c0.2,0.3,25.6,36.4,44.1,46.5L121.2,72.8z"/>
	</g>
	<g>
		<path class="st4" d="M128.7,24.8c-0.2,0.3-22.9,32.9-41.3,44.6c0.1,0.2,0.2,0.4,0.3,0.6c0.2,0.7,0.3,1.5,0.5,2.2
			c19.1-11.8,41.9-44.5,42.8-45.9L128.7,24.8z"/>
	</g>
	<g>
		<path class="st4" d="M103.2,188.5c-8.4,0-15.8-0.7-22.2-1.9c-19.7-3.4-32-10-32.4-10.3c-0.4-0.2-0.7-0.7-0.7-1.3v-43.3
			c-2.7-4.7-27.7-49.7-23.6-70.6c1.8-9.2,9.9-18,19.5-21.3c8.8-3,17.6-1,24.8,5.6c7.4,6.8,30.1,33.3,35.7,56.6
			c2.7-9.4,7.8-19.3,12.4-26.8c8-13,17.6-24.8,22.9-29.6c7.2-6.6,16.1-8.6,24.9-5.6c9.6,3.2,17.6,12,19.4,21.3
			c4,20.9-21.6,65.5-24.4,70.3v43.6c0,0.5-0.3,1.1-0.8,1.3C138.3,185.6,119.1,188.5,103.2,188.5z M50.7,174.2c3,1.5,14.3,6.8,31,9.5
			c17.6,3,44.8,3.7,75-9.6v-42.9c0-0.2,0.1-0.5,0.2-0.7c0.3-0.5,28.2-48.1,24.2-68.6c-1.6-8.4-8.8-16.2-17.5-19.1
			c-7.7-2.5-15.6-0.8-22.1,5c-10.3,9.3-33.8,41.1-36,62.8c0.1,1.6,0,3.3-0.1,4.8c-0.1,0.7-0.7,1.4-1.5,1.3c-0.7,0-1.4-0.6-1.4-1.4
			c-0.1-1.6,0-3.2,0.1-4.8c-1.2-22.3-25.7-53.4-36-63c-6.4-5.8-14.2-7.5-21.9-5c-8.7,2.9-16,10.8-17.6,19.2
			c-3.9,20.5,23.2,68.5,23.5,68.9c0.1,0.2,0.2,0.4,0.2,0.7C50.7,131.2,50.7,174.2,50.7,174.2z M158.1,175.1L158.1,175.1L158.1,175.1
			z"/>
	</g>
	<g>
		<path class="st4" d="M158.3,132.3c-32.5-16.3-60.3-15.5-78-11.9c-19.1,3.9-30.6,11.7-30.7,11.8l-1.6-2.3
			c0.5-0.3,12.1-8.2,31.7-12.2c18.1-3.7,46.6-4.6,79.8,12.1L158.3,132.3z"/>
	</g>
	<g>
		<path class="st4" d="M158.3,176.2c-34.8-12.9-62.6-12.2-79.8-9.4c-18.6,3.1-28.9,9.2-29.1,9.3l-1.5-2.4c0.4-0.2,11-6.5,30-9.6
			c17.5-2.9,45.9-3.6,81.2,9.5L158.3,176.2z"/>
	</g>
	<ellipse class="st4" cx="103.5" cy="140.7" rx="3.7" ry="5.1"/>
	<g>
		<path class="st4" d="M113.8,142.4H94.4c-0.7,0-1.4-0.6-1.4-1.4s0.6-1.4,1.4-1.4h19.5c0.7,0,1.4,0.6,1.4,1.4
			S114.6,142.4,113.8,142.4z"/>
	</g>
	<path class="st4" d="M159,151.8c-0.6,0.7-1.5,1.2-2.4,1.3c-2.4,0.2-4.7-2.3-5-5.6c-0.2-3.3,1.5-6.1,4-6.4c1.2-0.1,2.2,0.4,3.1,1.3
		C159.8,143.3,160.1,150.6,159,151.8z"/>
	<g>
		<path class="st4" d="M158.2,149.3c-0.1,0-0.2,0-0.4-0.1l-11-3.2c-0.7-0.2-1.2-1.1-1-1.8c0.2-0.7,1.1-1.2,1.8-1l11,3.2
			c0.7,0.2,1.2,1.1,1,1.8C159.3,148.8,158.8,149.3,158.2,149.3z"/>
	</g>
	<path class="st4" d="M48.8,153.2c0.6,0.7,1.5,1.2,2.4,1.3c2.4,0.2,4.7-2.3,5-5.6c0.3-3.3-1.5-6.1-4-6.4c-1.2-0.1-2.2,0.4-3.1,1.3
		C48,144.7,47.6,152,48.8,153.2z"/>
	<g>
		<path class="st4" d="M49.8,150.6c-0.6,0-1.2-0.4-1.4-1.1c-0.2-0.7,0.2-1.6,1-1.8l11-3.2c0.7-0.2,1.6,0.2,1.8,1
			c0.2,0.7-0.2,1.6-1,1.8l-11,3.2C50,150.6,49.9,150.6,49.8,150.6z"/>
	</g>
	<path class="st5" d="M158.6,131.2"/>
</g>
</svg>
