<?xml version="1.0" encoding="utf-8"?>
<!-- Generator: Adobe Illustrator 19.2.0, SVG Export Plug-In . SVG Version: 6.00 Build 0)  -->
<svg version="1.1" id="Layer_1" xmlns="http://www.w3.org/2000/svg" xmlns:xlink="http://www.w3.org/1999/xlink" x="0px" y="0px"
	 viewBox="0 0 208 208" style="enable-background:new 0 0 208 208;" xml:space="preserve">
<style type="text/css">
	.st0{fill:url(#SVGID_1_);}
	.st1{fill:url(#SVGID_2_);}
	.st2{fill:url(#SVGID_3_);}
	.st3{fill:url(#SVGID_4_);}
	.st4{fill:url(#SVGID_5_);}
	.st5{fill:url(#SVGID_6_);}
	.st6{fill:#333333;}
	.st7{fill:none;}
	.st8{fill:url(#SVGID_7_);}
</style>
<g>
	<g>
		
			<linearGradient id="SVGID_1_" gradientUnits="userSpaceOnUse" x1="50.9683" y1="-526.467" x2="154.8527" y2="-526.467" gradientTransform="matrix(1 0 0 -1 0 -372)">
			<stop  offset="0" style="stop-color:#422924"/>
			<stop  offset="0.4863" style="stop-color:#895F21"/>
			<stop  offset="1" style="stop-color:#4D312B"/>
		</linearGradient>
		<path class="st0" d="M51.9,133.5l-0.4,41.7c-0.1,0,45.3,28.2,102.6,0l-0.4-41.6C148,130.6,99.7,107.4,51.9,133.5z"/>
		
			<linearGradient id="SVGID_2_" gradientUnits="userSpaceOnUse" x1="25.6455" y1="-450.9921" x2="182.1597" y2="-450.9921" gradientTransform="matrix(1 0 0 -1 0 -372)">
			<stop  offset="0" style="stop-color:#422924"/>
			<stop  offset="0.5176" style="stop-color:#895F21"/>
			<stop  offset="1" style="stop-color:#40322E"/>
		</linearGradient>
		<path class="st1" d="M182.2,76.4l-36.3,25.8l-12.3-74.3L104,96.5L75.4,24.4l-14.8,81.9L30,79.4l-4.4,2.9l26.3,50.8v0.3
			c47.7-26,96-2.8,101.8,0.1v-0.4L182.2,76.4z"/>
	</g>
	
		<radialGradient id="SVGID_3_" cx="75.4145" cy="-402.5034" r="12.2891" gradientTransform="matrix(1 0 0 -1 0 -372)" gradientUnits="userSpaceOnUse">
		<stop  offset="0" style="stop-color:#895F21"/>
		<stop  offset="1" style="stop-color:#422924"/>
	</radialGradient>
	<circle class="st2" cx="75.4" cy="30.5" r="12.3"/>
	
		<radialGradient id="SVGID_4_" cx="133.5328" cy="-402.5034" r="12.3024" gradientTransform="matrix(1 0 0 -1 0 -372)" gradientUnits="userSpaceOnUse">
		<stop  offset="0" style="stop-color:#895F21"/>
		<stop  offset="1" style="stop-color:#422924"/>
	</radialGradient>
	<circle class="st3" cx="133.6" cy="30.5" r="12.3"/>
	
		<radialGradient id="SVGID_5_" cx="30.0283" cy="-453.4254" r="10.5423" gradientTransform="matrix(1 0 0 -1 0 -372)" gradientUnits="userSpaceOnUse">
		<stop  offset="0" style="stop-color:#895F21"/>
		<stop  offset="1" style="stop-color:#422924"/>
	</radialGradient>
	<circle class="st4" cx="30" cy="81.4" r="10.5"/>
	
		<radialGradient id="SVGID_6_" cx="178.1072" cy="-454.3" r="10.5396" gradientTransform="matrix(1 0 0 -1 0 -372)" gradientUnits="userSpaceOnUse">
		<stop  offset="0" style="stop-color:#895F21"/>
		<stop  offset="1" style="stop-color:#422924"/>
	</radialGradient>
	<circle class="st5" cx="178.1" cy="82.3" r="10.5"/>
	<g>
		<path class="st6" d="M178.1,70.6c-6.5,0-11.8,5.3-11.8,11.8c0,1.2,0.2,2.2,0.5,3.3l-20.1,14.2l-9.3-56.4c5.6-1.7,9.6-6.8,9.6-13
			c0-7.5-6-13.5-13.5-13.5c-7.5,0-13.5,6-13.5,13.5c0,4.7,2.4,8.9,6,11.3l-22.1,51.2L83.4,41.3c3.3-2.4,5.5-6.4,5.5-10.8
			c0-7.5-6-13.5-13.5-13.5s-13.5,6-13.5,13.5c0,5.7,3.7,10.7,8.8,12.7l-10.9,60.6L40.4,86.8c0.9-1.7,1.4-3.5,1.4-5.5
			c0-6.5-5.3-11.8-11.8-11.8s-11.8,5.3-11.8,11.8c0,6.4,5.2,11.6,11.5,11.8l20.7,40.3l-0.2,14.6c-0.3,1.8-0.4,4.4-0.1,5.8L50,175.9
			l0.6,0.4c0.5,0.3,11.8,7.2,30.3,10.8c5.8,1.2,13,1.9,20.8,1.9c15,0,33.2-3,52.9-12.7l0.8-0.4l-0.5-42.5l20-39.8
			c1,0.3,2,0.4,3.1,0.4c6.5,0,11.8-5.3,11.8-11.8C189.8,75.7,184.6,70.6,178.1,70.6z M122.5,30.5c0-6.1,5-11.1,11.1-11.1
			c6.1,0,11.1,5,11.1,11.1s-5,11.1-11.1,11.1C127.4,41.5,122.5,36.6,122.5,30.5z M64.3,30.5c0-6.1,5-11.1,11.1-11.1
			c6.1,0,11.1,5,11.1,11.1s-5,11-11.1,11C69.3,41.5,64.3,36.6,64.3,30.5z M20.8,81.4c0-5.2,4.2-9.3,9.3-9.3s9.3,4.2,9.3,9.3
			c0,5.2-4.2,9.3-9.3,9.3C24.9,90.7,20.8,86.5,20.8,81.4z M81.6,184.4c-13.6-2.6-23.4-7.1-27.4-9.3c3.8-1.8,12.5-5.4,25.1-7.4
			c15.5-2.5,40.3-3.1,71.3,7.5C122.7,188.3,97.8,187.5,81.6,184.4z M78.8,165.2c-13.4,2.1-22.3,5.9-26,7.7L53,156c0,0,0,0,0.1,0
			c2.2,0.2,4.2-1.9,4.6-4.8l5.6-1.6c0.7-0.2,1.1-0.9,0.9-1.7c-0.2-0.7-0.9-1.1-1.7-0.9l-5,1.4c-0.5-1.9-1.9-3.2-3.5-3.4
			c-0.3,0-0.6,0-0.8,0l0.1-11.3c0,0,12.6-7.3,28-10.3c16.2-3.2,41.6-4,71.3,10.4l0.1,10c-0.4-0.1-0.8-0.2-1.2-0.1
			c-1.7,0.1-2.9,1.6-3.5,3.4l-5-1.4c-0.7-0.2-1.5,0.2-1.7,0.9c-0.2,0.7,0.2,1.5,0.9,1.7l5.6,1.6c0.4,2.8,2.3,5,4.6,4.8
			c0.2,0,0.3,0,0.4-0.1l0.2,18.6C120.7,162,94.9,162.6,78.8,165.2z M153.1,131.4C122.9,116.8,97,117.7,80.5,121
			c-14.9,3-24.7,8.3-28,10.3L32.7,92.9c2.5-0.6,4.8-1.9,6.4-3.9l22.4,19.9l11.7-65c0.7,0.1,1.5,0.2,2.1,0.2c2,0,4.1-0.5,5.8-1.4
			l22.6,57.2L128.3,43c1.6,0.7,3.3,1,5.2,1c0.5,0,0.9,0,1.4-0.1l10,60.5l23-16.4c1.1,1.9,2.7,3.5,4.7,4.6L153.1,131.4z M178.1,91.6
			c-5.2,0-9.3-4.2-9.3-9.3c0-5.2,4.2-9.3,9.3-9.3c5.2,0,9.3,4.2,9.3,9.3C187.4,87.4,183.2,91.6,178.1,91.6z"/>
		<path class="st6" d="M111.6,142.4h-6.1c-0.4-2-1.8-3.6-3.4-3.6s-3,1.6-3.4,3.6h-5.2c-0.7,0-1.3,0.6-1.3,1.3s0.6,1.3,1.3,1.3h5.3
			c0.5,1.9,1.8,3.1,3.3,3.1c1.6,0,2.8-1.3,3.3-3.1h6.2c0.7,0,1.3-0.6,1.3-1.3S112.4,142.4,111.6,142.4z"/>
		<path class="st7" d="M152.6,133.9"/>
		<path class="st7" d="M53.3,133.8"/>
	</g>
	
		<linearGradient id="SVGID_7_" gradientUnits="userSpaceOnUse" x1="-28.846" y1="108.7531" x2="25.4996" y2="108.7531" gradientTransform="matrix(1 0 0 -1 0 210)">
		<stop  offset="0" style="stop-color:#3D2621"/>
		<stop  offset="0.4863" style="stop-color:#895F21"/>
		<stop  offset="0.9765" style="stop-color:#422924"/>
	</linearGradient>
	<path class="st8" d="M25.6,101L25.6,101c0,0.2,0,0.4-0.1,0.6c0-0.1,0-0.2,0-0.2v-0.1L25.6,101z"/>
</g>
</svg>
