<?xml version="1.0" encoding="utf-8"?>
<!-- Generator: Adobe Illustrator 19.2.0, SVG Export Plug-In . SVG Version: 6.00 Build 0)  -->
<svg version="1.1" id="Layer_1" xmlns="http://www.w3.org/2000/svg" xmlns:xlink="http://www.w3.org/1999/xlink" x="0px" y="0px"
	 viewBox="0 0 208 208" style="enable-background:new 0 0 208 208;" xml:space="preserve">
<style type="text/css">
	.st0{display:none;fill:url(#SVGID_1_);}
	.st1{display:none;}
	.st2{display:inline;fill:#5C5F61;}
	.st3{fill:url(#SVGID_2_);}
	.st4{fill:url(#SVGID_3_);}
	.st5{fill:url(#SVGID_4_);}
	.st6{fill:url(#SVGID_5_);}
	.st7{fill:none;}
	.st8{fill:#323232;}
</style>
<radialGradient id="SVGID_1_" cx="103.7" cy="150" r="27.0069" gradientTransform="matrix(1 0 0 -1 0 210)" gradientUnits="userSpaceOnUse">
	<stop  offset="0" style="stop-color:#E3BCA1"/>
	<stop  offset="0.1744" style="stop-color:#DBB499"/>
	<stop  offset="0.4494" style="stop-color:#C49D82"/>
	<stop  offset="0.7886" style="stop-color:#9F785E"/>
	<stop  offset="1" style="stop-color:#855E44"/>
</radialGradient>
<ellipse class="st0" cx="103.7" cy="60" rx="29.3" ry="24.5"/>
<g class="st1">
	<path class="st2" d="M103.7,85.9C86.8,85.9,73,74.2,73,60s13.8-25.9,30.7-25.9s30.7,11.6,30.7,25.9S120.6,85.9,103.7,85.9z
		 M103.7,36.9c-15.4,0-27.9,10.4-27.9,23.1s12.5,23.1,27.9,23.1s27.9-10.4,27.9-23.1S119.1,36.9,103.7,36.9z"/>
</g>
<g>
	
		<linearGradient id="SVGID_2_" gradientUnits="userSpaceOnUse" x1="48.3069" y1="163.85" x2="156.6773" y2="163.85" gradientTransform="matrix(1 0 0 -1 0 210)">
		<stop  offset="0" style="stop-color:#3D2621"/>
		<stop  offset="0.4863" style="stop-color:#895F21"/>
		<stop  offset="0.9765" style="stop-color:#422924"/>
	</linearGradient>
	<polygon class="st3" points="155.7,38.6 155.7,25.4 132.9,25.4 132.9,38.6 114.7,38.6 114.7,25.4 92.4,25.4 92.4,38.6 73.3,38.6 
		73.3,25.4 48.7,25.4 48.7,38.6 70.5,66.9 138.8,66.9 	"/>
	
		<linearGradient id="SVGID_3_" gradientUnits="userSpaceOnUse" x1="70.9736" y1="102.55" x2="139.3677" y2="102.55" gradientTransform="matrix(1 0 0 -1 0 210)">
		<stop  offset="0" style="stop-color:#3D2621"/>
		<stop  offset="0.4863" style="stop-color:#895F21"/>
		<stop  offset="0.9765" style="stop-color:#422924"/>
	</linearGradient>
	<polygon class="st4" points="138.8,66.9 70.5,66.9 70.5,148 138.8,147.9 	"/>
	
		<linearGradient id="SVGID_4_" gradientUnits="userSpaceOnUse" x1="58.9736" y1="54.8" x2="150.3336" y2="54.8" gradientTransform="matrix(1 0 0 -1 0 210)">
		<stop  offset="0" style="stop-color:#3D2621"/>
		<stop  offset="0.4863" style="stop-color:#895F21"/>
		<stop  offset="0.9765" style="stop-color:#422924"/>
	</linearGradient>
	<polygon class="st5" points="148.4,147.9 138.8,147.9 70.5,148 61.4,148 57.3,162.5 151.1,162.5 	"/>
	
		<linearGradient id="SVGID_5_" gradientUnits="userSpaceOnUse" x1="45.9736" y1="37.45" x2="162.3526" y2="37.45" gradientTransform="matrix(1 0 0 -1 0 210)">
		<stop  offset="0" style="stop-color:#3D2621"/>
		<stop  offset="0.4863" style="stop-color:#895F21"/>
		<stop  offset="0.9765" style="stop-color:#422924"/>
	</linearGradient>
	<polygon class="st6" points="151.1,162.5 57.3,162.5 46.4,162.5 46.4,182.6 161.6,182.6 161.6,162.5 	"/>
</g>
<line class="st7" x1="70.5" y1="66.9" x2="138.8" y2="66.9"/>
<line class="st7" x1="70.5" y1="148" x2="138.8" y2="147.9"/>
<line class="st7" x1="57.3" y1="162.5" x2="151.1" y2="162.5"/>
<g>
	<path class="st8" d="M161.6,184.2H46.4c-0.9,0-1.6-0.7-1.6-1.6v-20c0-0.9,0.7-1.6,1.6-1.6h9.7l3.8-13.4c0.2-0.7,0.8-1.2,1.5-1.2
		h7.5v-79L47.4,39.6c-0.2-0.3-0.3-0.6-0.3-1V25.4c0-0.9,0.7-1.6,1.6-1.6h24.6c0.9,0,1.6,0.7,1.6,1.6V37h15.9V25.4
		c0-0.9,0.7-1.6,1.6-1.6h22.3c0.9,0,1.6,0.7,1.6,1.6V37h15V25.4c0-0.9,0.7-1.6,1.6-1.6h22.8c0.9,0,1.6,0.7,1.6,1.6v13.2
		c0,0.3-0.1,0.6-0.2,0.8l-16.6,27.9v79h8c0.8,0,1.4,0.5,1.6,1.3l2.5,13.3h9.2c0.9,0,1.6,0.7,1.6,1.6v20
		C163.2,183.5,162.5,184.2,161.6,184.2z M48,181h112v-16.9h-8.9c-0.8,0-1.4-0.5-1.6-1.3l-2.5-13.3h-8.2c-0.9,0-1.6-0.7-1.6-1.6v-81
		c0-0.3,0.1-0.6,0.2-0.8L154,38.2V27h-19.6v11.6c0,0.9-0.7,1.6-1.6,1.6h-18.2c-0.9,0-1.6-0.7-1.6-1.6V27H94v11.6
		c0,0.9-0.7,1.6-1.6,1.6H73.3c-0.9,0-1.6-0.7-1.6-1.6V27H50.2v11.1l21.5,27.8c0.2,0.3,0.3,0.6,0.3,1V148c0,0.9-0.7,1.6-1.6,1.6h-7.9
		L58.8,163c-0.2,0.7-0.8,1.2-1.5,1.2H48V181z"/>
</g>
<rect x="70.3" y="65.3" class="st8" width="68.8" height="5"/>
<rect x="46.1" y="161.4" class="st8" width="115.7" height="2.7"/>
<rect x="69.2" y="146.4" class="st8" width="69.7" height="3.1"/>
<rect x="46.1" y="181" class="st7" width="115.7" height="2.7"/>
</svg>
