<?xml version="1.0" encoding="utf-8"?>
<!-- Generator: Adobe Illustrator 19.2.0, SVG Export Plug-In . SVG Version: 6.00 Build 0)  -->
<svg version="1.1" id="Selected_Items" xmlns="http://www.w3.org/2000/svg" xmlns:xlink="http://www.w3.org/1999/xlink" x="0px"
	 y="0px" viewBox="0 0 208 208" style="enable-background:new 0 0 208 208;" xml:space="preserve">
<style type="text/css">
	.st0{fill:url(#SVGID_1_);}
	.st1{fill:url(#SVGID_2_);}
	.st2{fill:url(#SVGID_3_);}
	.st3{fill:url(#SVGID_4_);}
	.st4{fill:url(#SVGID_5_);}
	.st5{fill:url(#SVGID_6_);}
	.st6{fill:url(#SVGID_7_);}
	.st7{fill:none;stroke:#666666;stroke-width:3;stroke-linecap:round;stroke-linejoin:round;}
</style>
<title>white-bishop</title>
<g>
	
		<radialGradient id="SVGID_1_" cx="25.2367" cy="-551.1463" r="6.21" gradientTransform="matrix(2.7032 0 0 -2.7032 54.8777 -1453.1179)" gradientUnits="userSpaceOnUse">
		<stop  offset="7.000000e-02" style="stop-color:#E9C2A6"/>
		<stop  offset="0.99" style="stop-color:#855E42"/>
	</radialGradient>
	<path class="st0" d="M128.8,48.2c-3.9,2-8.6,1.8-12.3-0.5c-0.9-0.6-1.7-1.3-2.4-2c-2.5-2.3-3.9-5.5-3.8-8.9c0-3.4,1.3-6.7,3.8-9.1
		c2.4-2.3,5.6-3.6,8.9-3.6c3.4-0.1,6.7,1.2,9.2,3.6s3.8,5.6,3.8,9.1c0.1,3.4-1.3,6.6-3.8,8.9C131.2,46.7,130,47.5,128.8,48.2z"/>
	
		<linearGradient id="SVGID_2_" gradientUnits="userSpaceOnUse" x1="283.0714" y1="-951.61" x2="350.3802" y2="-951.61" gradientTransform="matrix(1 0 0 -1 -191.34 -861.0601)">
		<stop  offset="0" style="stop-color:#855E42"/>
		<stop  offset="0.51" style="stop-color:#E9C2A6"/>
		<stop  offset="0.99" style="stop-color:#855E42"/>
	</linearGradient>
	<path class="st1" d="M141.5,133.4c-3.3-27.8-15.9-51.9-37.8-72.2c3.6-5.1,7.9-9.6,12.7-13.5c3.7,2.3,8.4,2.5,12.3,0.5
		C159.4,73.8,163.6,102.2,141.5,133.4z"/>
	
		<linearGradient id="SVGID_3_" gradientUnits="userSpaceOnUse" x1="241.9833" y1="-953.86" x2="333.08" y2="-953.86" gradientTransform="matrix(1 0 0 -1 -191.34 -861.0601)">
		<stop  offset="0" style="stop-color:#855E42"/>
		<stop  offset="0.45" style="stop-color:#E9C2A6"/>
		<stop  offset="1" style="stop-color:#855E42"/>
	</linearGradient>
	<path class="st2" d="M103.8,61.2c21.8,20.3,34.4,44.3,37.8,72.2c0.2,1.4,0.3,2.9,0.4,4.3H65l0,0h-0.5C43.8,113,48,83.1,77,47.9
		c1.9,1.1,4,1.6,6.2,1.6c1.7,0,3.4-0.4,5-1.1C93.6,52.4,98.8,56.7,103.8,61.2z"/>
	
		<linearGradient id="SVGID_4_" gradientUnits="userSpaceOnUse" x1="256.2019" y1="-1007.3101" x2="333.1082" y2="-1007.3101" gradientTransform="matrix(1 0 0 -1 -191.34 -861.0601)">
		<stop  offset="0" style="stop-color:#855E42"/>
		<stop  offset="0.51" style="stop-color:#E9C2A6"/>
		<stop  offset="1" style="stop-color:#855E42"/>
	</linearGradient>
	<path class="st3" d="M65,137.8L65,137.8h76.9l0,0c0.1,5.8-1,11.5-3.1,16.9H65V137.8z"/>
	
		<linearGradient id="SVGID_5_" gradientUnits="userSpaceOnUse" x1="297.6955" y1="-1030.5959" x2="371.1676" y2="-1030.5959" gradientTransform="matrix(1 0 0 -1 -191.34 -861.0601)">
		<stop  offset="0" style="stop-color:#E9C2A6"/>
		<stop  offset="1" style="stop-color:#855E42"/>
	</linearGradient>
	<path class="st4" d="M128,155.3c-0.9,6.8,6.7,10,22.8,9.6c16.1-0.5,25.6,2,28.5,7.4c0.8,10.4,0.5,13.8-1.1,10.4
		c-1.5-3.4-7.2-5.6-16.9-6.5c-11.2-0.8-22.3-1-33.5-0.4c-16,0.8-23-6.1-20.8-20.7L128,155.3z"/>
	
		<radialGradient id="SVGID_6_" cx="10.4867" cy="-551.1463" r="6.21" gradientTransform="matrix(2.7032 0 0 -2.7032 54.8777 -1453.1179)" gradientUnits="userSpaceOnUse">
		<stop  offset="6.000000e-02" style="stop-color:#E9C2A6"/>
		<stop  offset="0.99" style="stop-color:#855E42"/>
	</radialGradient>
	<path class="st5" d="M88.2,48.5c-1.6,0.7-3.3,1.1-5,1.1c-2.2,0-4.3-0.5-6.2-1.6c-1.1-0.7-2-1.4-3-2.3c-2.5-2.3-3.9-5.5-3.8-8.9
		c0-3.4,1.3-6.7,3.8-9.1s5.8-3.7,9.2-3.6c3.4-0.1,6.7,1.3,9.1,3.6c2.5,2.4,3.8,5.6,3.8,9.1c0.1,3.4-1.3,6.6-3.8,8.9
		C91.1,46.8,89.7,47.8,88.2,48.5z"/>
	
		<linearGradient id="SVGID_7_" gradientUnits="userSpaceOnUse" x1="-1988.3544" y1="1573.1359" x2="-1914.8784" y2="1573.1359" gradientTransform="matrix(-1 0 0 1 -1886.65 -1403.8)">
		<stop  offset="0" style="stop-color:#E9C2A6"/>
		<stop  offset="1" style="stop-color:#855E42"/>
	</linearGradient>
	<path class="st6" d="M57.4,164.9c16,0.4,23.7-2.9,22.8-9.7l21.2-0.3c1.9,14.6-5.1,21.5-20.9,20.8c-11.2-0.6-22.5-0.4-33.7,0.4
		c-9.7,0.8-15.4,2.9-17,6.4c-1.6,3.4-2,0-1.1-10.4C31.9,166.9,41.5,164.5,57.4,164.9z"/>
	<path class="st7" d="M116.5,47.7c-0.9-0.6-1.7-1.3-2.4-2c-2.5-2.3-3.9-5.5-3.8-8.9c0-3.4,1.3-6.7,3.8-9.1c2.4-2.3,5.6-3.6,8.9-3.6
		c3.4-0.1,6.7,1.2,9.2,3.6s3.8,5.6,3.8,9.1c0.1,3.4-1.3,6.6-3.8,8.9c-1,1-2.2,1.9-3.5,2.6c30.6,25.6,34.9,54,12.7,85.1
		c0.2,1.4,0.3,2.9,0.4,4.3 M88.4,48.5c5.4,3.9,10.4,8,15.3,12.5c3.6-5.1,7.9-9.6,12.7-13.5 M141.7,137.7c0.1,5.8-1,11.5-3.1,16.9
		H64.8v-16.8h-0.5C43.8,113,47.9,83.3,76.9,48.1 M128.8,48.1c-3.9,2-8.6,1.8-12.3-0.5 M128,155.3c-0.9,6.8,6.7,10,22.8,9.6
		c16.1-0.5,25.6,2,28.5,7.4c0.8,10.4,0.5,13.8-1.1,10.4c-1.5-3.4-7.2-5.6-16.9-6.5c-11.2-0.8-22.3-1-33.5-0.4
		c-16,0.8-23-6.1-20.8-20.7 M88.1,48.6c-1.6,0.7-3.3,1.1-5,1.1c-2.2,0-4.3-0.5-6.2-1.6 M64.8,138L64.8,138h77 M57.4,165
		c-15.9-0.4-25.5,2-28.7,7.2c-0.8,10.4-0.5,13.8,1.1,10.4c1.5-3.4,7.2-5.5,17-6.4c11.2-0.8,22.4-1,33.7-0.4
		c15.9,0.7,22.8-6.2,20.9-20.8l-21.2,0.3C81,162.1,73.4,165.3,57.4,165C57.4,164.9,57.4,165,57.4,165z M103.8,61.2
		c21.8,20.3,34.4,44.3,37.8,72.2"/>
</g>
<circle class="st7" cx="83" cy="36.9" r="12.8"/>
</svg>
