<?xml version="1.0" encoding="utf-8"?>
<!-- Generator: Adobe Illustrator 19.2.0, SVG Export Plug-In . SVG Version: 6.00 Build 0)  -->
<svg version="1.1" id="Selected_Items" xmlns="http://www.w3.org/2000/svg" xmlns:xlink="http://www.w3.org/1999/xlink" x="0px"
	 y="0px" viewBox="0 0 208 208" style="enable-background:new 0 0 208 208;" xml:space="preserve">
<style type="text/css">
	.st0{fill:url(#SVGID_1_);}
	.st1{fill:url(#SVGID_2_);}
	.st2{fill:url(#SVGID_3_);}
	.st3{fill:url(#SVGID_4_);}
	.st4{fill:none;stroke:#666666;stroke-width:3;stroke-linecap:round;stroke-linejoin:round;stroke-miterlimit:3;}
</style>
<g>
	
		<linearGradient id="SVGID_1_" gradientUnits="userSpaceOnUse" x1="73.825" y1="141.7196" x2="131.6839" y2="141.7196" gradientTransform="matrix(1 0 0 -1 0 210)">
		<stop  offset="0" style="stop-color:#855E42"/>
		<stop  offset="0.5216" style="stop-color:#E9C2A6"/>
		<stop  offset="0.9804" style="stop-color:#855E42"/>
	</linearGradient>
	<path class="st0" d="M104,117.1c-0.2,0-0.4,0-0.6,0c-0.1,0-0.2,0-0.4,0c-0.2-0.5-0.3-0.9-0.3-1.4c0-0.6,0-1.3,0-1.9
		c-0.1-0.4-0.3-0.7-0.6-1.1l0.4-0.7v0.1c0-0.1,0-0.1,0.1-0.1v-0.3c0.2-0.4,0.4,1.4,0.7,5.4c-0.1-2.6-0.1-4.8-0.1-6.5v-0.1
		c-0.2-1.4-0.3-2.4-0.3-2.9l-1.5-3.6c-4-11.8-9.3-23-15.8-33.6c-0.8-1.3-1.7-2.6-2.5-3.8c-0.6-1.1-1.2-2.1-1.7-3.1
		C79,59.4,76.5,56,74,53.1V32.2c0-3.9,1-6.9,3.1-8.9c2.4-2.5,6.3-3.8,11.6-3.8h28.5c5.8,0,9.9,1.5,12.3,4.6
		c-8.5,12.5-17.2,23.1-25.9,31.4c5.5,5.3,11.7,10.2,18.8,14.7c-7-4.5-13.2-9.3-18.8-14.7c8.6-8.4,17.3-18.9,25.9-31.4
		c1.6,2,2.4,4.7,2.4,8.1v24.2c-1.8,1.9-3.4,4.1-4.9,6.5c-1.7,2.4-3.2,4.8-4.6,7.2c-6.8,10.8-12.2,22.2-16.3,34.1l-1.4,3.6
		c-0.3,0.5-0.5,1.4-0.6,2.9v0.1C104.3,112.5,104.2,114.6,104,117.1z M105.5,115c-0.4,0.6-0.7,1.3-1.1,2.1h-0.1
		c0.1-3.6,0.3-5.3,0.6-5l0.1,0.3v0.4h0.1l0.4,0.4l-0.4,0.3l0.4,0.6C105.5,114.3,105.5,114.7,105.5,115z M103.7,55.6
		C98.1,61,92.1,65.9,85.7,70.3C92.1,65.8,98.1,60.9,103.7,55.6c-8.6-8.4-17.6-19.2-26.6-32.3C86.3,36.5,95.1,47.2,103.7,55.6z"/>
	
		<linearGradient id="SVGID_2_" gradientUnits="userSpaceOnUse" x1="-869.9312" y1="552.7522" x2="-807.0763" y2="552.7522" gradientTransform="matrix(-0.9105 -0.4136 -0.2364 0.9909 -489.7504 -811.5902)">
		<stop  offset="0" style="stop-color:#855E42"/>
		<stop  offset="1" style="stop-color:#E9C2A6"/>
	</linearGradient>
	<path class="st1" d="M104.3,117.1H104c0.2-2.5,0.3-4.5,0.3-6v-0.1c0.1-1.5,0.3-2.5,0.6-2.9l1.4-3.6c4-11.9,9.4-23.3,16.3-34.1
		c1.4-2.4,2.9-4.8,4.6-7.2c0.7-0.9,1.5-1.9,2.2-2.9c0.5-0.7,1.1-1.4,1.8-2.1c1.5-1.9,3-3.8,4.5-5.4c2.6-3.2,5.2-5.6,7.7-7.2
		c8.1-5.8,16.6-6.7,25.3-2.6c11.3,5.6,16.3,14.6,14.9,27c-1.6,12.2-6.2,26-14,41.6c-3.6,7.4-6.9,13.8-9.7,19
		c-1.5-0.9-3.1-1.6-4.7-2.1c-1.9-0.9-3.9-1.7-5.7-2.4c-2.4-0.9-4.6-1.8-6.7-2.5c-3.4-1.1-6.6-1.9-9.6-2.5c-0.6-0.3-1-0.4-1.3-0.4
		c-8.7-2-17.5-3.1-26-3.1c0-0.4,0-0.8,0-1.4c0-0.4,0-0.6,0-0.7c0-0.4,0-0.7,0-1l-0.4-0.6l0.4-0.3l-0.4-0.4h-0.1v-0.4l-0.1-0.3
		C104.5,111.7,104.4,113.4,104.3,117.1z"/>
	
		<linearGradient id="SVGID_3_" gradientUnits="userSpaceOnUse" x1="48.4233" y1="57.32" x2="160.3372" y2="57.32" gradientTransform="matrix(1 0 0 -1 0 210)">
		<stop  offset="0" style="stop-color:#855E42"/>
		<stop  offset="0.4863" style="stop-color:#E9C2A6"/>
		<stop  offset="1" style="stop-color:#855E42"/>
	</linearGradient>
	<path class="st2" d="M48.6,130.2c0.6-0.4,1.3-0.6,2.1-0.7c0.2-0.2,0.5-0.4,0.8-0.6c4.3-1.9,8.6-3.7,12.9-5.2c1.1-0.5,2.3-0.8,3.6-1
		c4.8-1.8,9.7-3,14.9-3.6c1.3-0.4,2.6-0.6,4-0.8c5-0.8,10-1.3,15-1.3c0.4,0,0.7,0,1,0c0.2,0,0.3,0,0.4,0c0.2,0,0.4,0,0.6,0h0.3h0.1
		c0.4,0,0.7,0,1.1,0c8.5,0,17.3,1,26,3.1c0.3,0,0.7,0.1,1.3,0.4c3,0.6,6.2,1.4,9.6,2.5c2,0.7,4.3,1.6,6.7,2.5
		c1.9,0.6,3.8,1.4,5.7,2.4c1.7,0.5,3.2,1.2,4.7,2.1h0.1l0.3,0.1h0.3v16.7v5.4v2.2v21.3c-36.4,17-73.7,17-111.8,0v-25.4v-20.2h0.2
		V130.2z M106.9,141.7h6.5H106.9z M160.3,152.3c-3.2-0.6-5.8-1.7-8.1-3.1C154.4,150.6,157.1,151.7,160.3,152.3z M160.3,154.5
		c-1.2,0-2.2-0.2-2.9-0.7c-0.6-0.4-1-0.9-1-1.5c0,0.6,0.3,1.2,1,1.5C158.1,154.3,159.1,154.5,160.3,154.5z M48.5,175.8
		c9.7-4,19.5-6.9,29.2-8.6c8.2-1.5,16.6-2.3,25-2.4c9.1,0,18.4,0.9,27.8,2.6c9.7,1.8,19.7,4.5,29.8,8.4c-10-3.8-20-6.6-29.8-8.4
		c-9.4-1.8-18.7-2.6-27.8-2.6c-8.4,0.1-16.9,0.9-25,2.4C68,168.9,58.3,171.8,48.5,175.8z M59.7,147.7l-7.5,1.8
		c0.3,2.2-0.1,3.9-1.1,4.9c1-1,1.4-2.6,1.1-4.9L59.7,147.7z M48.5,150.4l3.6-0.8c-0.2-0.3-0.3-0.6-0.3-0.8c0-1.9-0.7-2.9-2.1-3.1
		c1.4,0.2,2.1,1.2,2.1,3.1c0,0.3,0.1,0.6,0.3,0.8L48.5,150.4z"/>
	
		<linearGradient id="SVGID_4_" gradientUnits="userSpaceOnUse" x1="-45.9982" y1="9.523761e-02" x2="16.792" y2="9.523761e-02" gradientTransform="matrix(0.9103 -0.414 -0.2356 -0.9914 77.9732 76.724)">
		<stop  offset="0" style="stop-color:#855E42"/>
		<stop  offset="1" style="stop-color:#E9C2A6"/>
	</linearGradient>
	<path class="st3" d="M50.7,129.5c-0.8,0.1-1.5,0.3-2.1,0.7c-3.1-5.3-6.5-11.8-10.3-19.7C30.6,95.2,25.9,81.3,24.4,69
		c-1.6-12.3,3.4-21.3,15.1-26.7c8.4-4.3,16.7-3.5,24.9,2.4c2.5,1.8,5.1,4.2,7.7,7.2c1.5,1.6,3,3.3,4.5,5.2c0.5,0.8,1.1,1.7,1.8,2.6
		c1.6,2.1,3.2,4.4,4.7,6.7c0.8,1.2,1.7,2.5,2.5,3.8c6.4,10.6,11.6,21.8,15.8,33.5l1.5,3.6c0,0.6,0.1,1.5,0.3,2.9v0.1
		c0,1.8,0,3.9,0.1,6.5c-0.3-4-0.5-5.8-0.7-5.4v0.3c-0.1,0-0.1,0-0.1,0.1v-0.1l-0.4,0.7v0.1c0,0.3,0,0.5,0,0.7c-0.1,0.5-0.1,1,0,1.7
		c-0.1,0.7-0.1,1.3,0,1.8c-0.1,0-0.1,0-0.1,0.1c-4.9,0-9.9,0.4-15,1.3c-1.4,0.2-2.7,0.5-4,0.8c-5,0.6-9.9,1.9-14.9,3.6
		c-1.3,0.2-2.5,0.5-3.6,1c-4.4,1.5-8.7,3.2-12.9,5.2C51.2,129.1,50.9,129.3,50.7,129.5z"/>
	<path class="st4" d="M131.9,56.4V32.2c0-3.3-0.8-6-2.4-8.1c-8.5,12.5-17.2,23.1-25.9,31.4c5.5,5.3,11.7,10.2,18.8,14.7
		c1.4-2.4,2.9-4.8,4.6-7.2 M74.1,53.2v-21c0-3.9,1-6.9,3.1-8.9c2.4-2.5,6.3-3.8,11.6-3.8h28.5c5.8,0,9.9,1.5,12.3,4.6 M159.6,130.1
		c2.9-5.2,6.1-11.5,9.7-19c7.7-15.5,12.3-29.3,14-41.6c1.5-12.3-3.4-21.4-14.9-27c-8.7-4.1-17.2-3.2-25.3,2.6
		c-2.5,1.7-5.1,4.1-7.7,7.2c-1.5,1.7-3,3.5-4.5,5.4c-0.7,0.6-1.3,1.3-1.8,2.1c-0.7,1-1.5,2-2.2,2.9 M105.5,117.1
		c8.5,0,17.3,1,26,3.1c0.3,0,0.7,0.1,1.3,0.4c3,0.6,6.2,1.4,9.6,2.5c2,0.7,4.3,1.6,6.7,2.5c1.9,0.6,3.8,1.4,5.7,2.4
		c1.7,0.5,3.2,1.2,4.7,2.1h0.1 M160.3,130.2v16.7v5.4v2.2v21.3c-36.4,17-73.7,17-111.8,0v-25.4v-20.2h0.1
		c-3.1-5.3-6.5-11.8-10.3-19.7C30.6,95.2,25.9,81.3,24.4,69c-1.6-12.3,3.4-21.3,15.1-26.7c8.4-4.3,16.7-3.5,24.9,2.4
		c2.5,1.8,5.1,4.2,7.7,7.2c1.5,1.6,3,3.3,4.5,5.2c0.5,0.8,1.1,1.7,1.8,2.6c1.6,2.1,3.2,4.4,4.7,6.7 M122.5,70.3
		c-6.8,10.8-12.2,22.2-16.3,34.1l-1.4,3.6c-0.3,0.5-0.5,1.4-0.6,2.9v0.1c0,1.5-0.1,3.5-0.3,6h0.3h0.1c0.4,0,0.7,0,1.1,0
		 M106.9,141.7h6.5 M101.3,141.7v-0.3c0-0.9,0.3-1.7,0.8-2.2c0.6-0.6,1.3-1,2.1-1c0.8,0,1.5,0.3,1.9,1c0.5,0.6,0.7,1.3,0.7,2.2v0.3
		c0,0.7-0.2,1.3-0.7,1.8c-0.5,0.7-1.1,1.1-1.9,1.1s-1.5-0.4-2.1-1.1C101.6,143.1,101.3,142.5,101.3,141.7h-5.6 M160.3,146.9
		l-2.3,0.4l-1,2.3 M160.3,150.8c-3.2-0.6-4.2-0.9-8.1-1.5 M160.3,154.5c-1.2,0-2.2-0.2-2.9-0.7c-0.6-0.4-1.1-3.7-1.1-4.3
		 M48.5,175.8c9.7-4,19.5-6.9,29.2-8.6c8.2-1.5,16.6-2.3,25-2.4c9.1,0,18.4,0.9,27.8,2.6c9.7,1.8,19.7,4.5,29.8,8.4 M103.4,117.1
		c-0.1-2.6-0.1-4.8-0.1-6.5v-0.1c-0.2-1.4-0.3-2.4-0.3-2.9l-1.5-3.6c-4.1-11.8-9.4-23-15.9-33.6c-0.8-1.3-1.7-2.6-2.5-3.8
		 M103.7,55.6C98.1,61,92.1,65.9,85.7,70.3 M103.7,55.6c-8.6-8.4-17.6-19.2-26.6-32.3 M102,117.1c0.4,0,0.7,0,1,0 M104,117.1
		c-0.2,0-0.4,0-0.6,0c-0.1,0-0.2,0-0.4,0 M51.6,129c4.3-1.9,8.6-3.7,12.9-5.2c1.1-0.5,2.3-0.8,3.6-1c4.8-1.8,9.7-3,14.9-3.6
		c1.3-0.4,2.6-0.6,4-0.8c5-0.8,10-1.3,15-1.3 M48.6,130.2c0.6-0.4,1.3-0.6,2.1-0.7 M59.7,147.7l-7.5,1.8c0.3,2.2-1.4,4-2.4,5
		 M48.5,150.4l3.6-0.8c-0.2-0.3-0.3-0.6-0.3-0.8c0-1.9-0.7-2.9-2.1-3.1 M101.4,141.4h5.6"/>
</g>
</svg>
