<?xml version="1.0" encoding="utf-8"?>
<!-- Generator: Adobe Illustrator 19.2.0, SVG Export Plug-In . SVG Version: 6.00 Build 0)  -->
<svg version="1.1" id="Layer_1" xmlns="http://www.w3.org/2000/svg" xmlns:xlink="http://www.w3.org/1999/xlink" x="0px" y="0px"
	 viewBox="0 0 208 208" style="enable-background:new 0 0 208 208;" xml:space="preserve">
<style type="text/css">
	.st0{fill:url(#SVGID_1_);stroke:#5C5F61;stroke-width:0.2;stroke-miterlimit:10;}
	.st1{fill:#626566;stroke:#5C5F61;stroke-width:0.1;stroke-miterlimit:10;}
	.st2{fill:#616466;stroke:#5C5F61;stroke-width:0.1;stroke-miterlimit:10;}
	.st3{fill:#5C5F61;stroke:#5C5F61;stroke-width:0.2;stroke-miterlimit:10;}
</style>
<g>
	
		<radialGradient id="SVGID_1_" cx="641.9252" cy="-1570.1941" r="99.5424" gradientTransform="matrix(0.9934 1.283640e-02 2.174980e-02 -1.6832 -517.6445 -2544.5146)" gradientUnits="userSpaceOnUse">
		<stop  offset="0" style="stop-color:#E9C2A6"/>
		<stop  offset="0.6998" style="stop-color:#8D6347"/>
		<stop  offset="1" style="stop-color:#8D6347"/>
	</radialGradient>
	<path class="st0" d="M103.8,102.8c-0.6,5.3-0.7,25.9-23.5,42.5s-16.1,36.5-16.1,36.5s91.5,1,102.7,0c11.3-1,9.3-19.6,9.3-19.6
		C166.5,33.8,89.5,39.1,82.1,38.1c-7.3-1-24.5-12.3-24.5-12.3c0.7,18.6,11.3,24.5,11.3,24.5l-9.3-9.4c-5.1,0.7-13.9-7.2-13.9-7.2
		C46.4,51.6,55,55,55,55c2.7,23.8-24.5,63.4-24.5,63.4l-0.6,0.7c2.8,15.9,13.5,11.2,13.5,11.2l9.9-7l-8.6,10.3
		C56,144,71.9,115.4,71.9,115.4c36.2,9.3,35.5-28.5,35.5-28.5C105.7,103.5,103.8,102.8,103.8,102.8"/>
	<path class="st1" d="M69.5,75.4c0,0-0.1,1.3,0.3,2.3c0.8,1.9,3.4,3.4,6.8,1.4c0,0,2.4-1.9,1.2-4.4c-1.2-2.5-5.5-5.3-13.1-1.1
		c-1.7,1-2.5,2.2-2.3,3.2c0.1,0.8,1.1,1.8,2.5,1C65.7,77.2,67.5,76.4,69.5,75.4z"/>
	<path class="st2" d="M38.7,119.2c0,0-0.1,1,0.2,1.8c0.6,1.5,2.4,2.6,4.9,1.1c0,0,1.7-1.5,0.8-3.4s-3.9-4.1-9.3-0.8
		c-1.2,0.7-1.8,1.7-1.7,2.4c0.1,0.6,0.8,1.4,1.8,0.8C36,120.6,37.3,119.9,38.7,119.2z"/>
	<g>
		<path class="st3" d="M30.4,119.7c-0.3,0-0.5-0.1-0.8-0.2c-0.6-0.4-0.8-1.3-0.4-1.9c0.3-0.4,26.3-38.5,24.4-61.7
			c-2.3-1.3-8.7-6.5-9.3-22.1c0-0.5,0.3-1,0.7-1.3c0.5-0.2,1-0.2,1.4,0.1c2.8,2,10.7,7.3,14.6,7.1c0.7-0.1,1.4,0.5,1.4,1.3
			s-0.5,1.4-1.3,1.4c-4.1,0.2-10.5-3.6-14-5.9c1.3,14.4,8.1,17.2,8.2,17.3c0.5,0.2,0.8,0.6,0.9,1.1c2.7,24.1-23.6,62.7-24.7,64.3
			C31.3,119.5,30.9,119.7,30.4,119.7z"/>
	</g>
	<g>
		<path class="st3" d="M135,183.5c-29.5,0-68.4-0.4-70.9-0.4c-0.6,0-1.1-0.4-1.3-0.9c-0.1-0.2-1.8-5.4-0.6-12.7
			c1.1-6.7,5-16.5,17.2-25.3c20.8-15,22.6-33.2,23.1-40c0.1-0.5,0.1-1,0.1-1.4c0.1-0.7,0.8-1.3,1.5-1.2s1.3,0.8,1.2,1.5
			c0,0.4-0.1,0.8-0.1,1.4c-0.7,7.2-2.6,26.2-24.2,42c-19.1,13.8-16.8,30.1-15.9,34.1c10.1,0.1,91.1,0.9,101.5,0c2.1-0.2,3.7-1,5-2.6
			c4.2-5.1,3.1-15.4,3.1-15.5c-3.8-50.4-18.3-85.9-43.1-105.8C112,41.1,92,40.1,84.4,39.7c-1.1-0.1-1.9-0.1-2.5-0.2
			c-6-0.8-17.9-7.9-22.8-11C60.6,43.8,69.2,49,69.6,49.2c0.7,0.4,0.9,1.2,0.5,1.9s-1.2,0.9-1.9,0.5c-0.5-0.3-11.3-6.6-12-25.7
			c0-0.5,0.2-1,0.7-1.2c0.4-0.3,1-0.2,1.4,0c0.2,0.1,17.1,11.1,24,12c0.4,0.1,1.2,0.1,2.2,0.1c7.8,0.4,28.5,1.4,48.8,17.6
			c25.4,20.3,40.2,56.5,44.1,107.6c0,0.4,1.2,11.5-3.7,17.5c-1.8,2.1-4.1,3.4-6.9,3.6C163.1,183.4,150.3,183.5,135,183.5z"/>
	</g>
	<g>
		<path class="st3" d="M50,137.2c-2.3,0-4.5-0.9-6.4-2.6c-0.5-0.5-0.6-1.3-0.1-1.9l2-2.4l-1.5,1.1c-0.1,0.1-0.2,0.1-0.2,0.1
			c-0.2,0.1-4.5,1.9-8.6-0.4c-3.5-1.9-5.8-5.9-6.8-11.8c-0.1-0.7,0.4-1.5,1.1-1.6s1.5,0.4,1.6,1.1c0.9,5.2,2.7,8.4,5.4,9.9
			c2.7,1.5,5.6,0.5,6.2,0.3l9.8-6.9c0.6-0.4,1.3-0.3,1.8,0.2s0.5,1.3,0,1.8l-7.7,9.2c1.4,0.9,2.9,1.3,4.6,1
			c9.2-1.5,19.4-19.5,19.5-19.7c0.3-0.5,0.9-0.8,1.5-0.7c10.1,2.6,18.2,1.6,23.9-2.9c10-7.9,9.8-24.1,9.8-24.2
			c0-0.8,0.6-1.4,1.3-1.4c0.8,0,1.4,0.6,1.4,1.3c0,0.7,0.2,17.7-10.9,26.4c-6.3,5-14.8,6.2-25.3,3.7c-2.3,3.9-11.6,18.7-20.9,20.2
			C51.1,137.2,50.6,137.2,50,137.2z"/>
	</g>
	<g>
		<path class="st3" d="M54.6,56.4c-0.2,0-0.3,0-0.5-0.1c-0.7-0.3-1.1-1.1-0.8-1.8c0.1-0.4,3.5-9,8.3-11.8c0.7-0.4,1.5-0.1,1.9,0.5
			c0.4,0.7,0.1,1.5-0.5,1.9c-3.4,1.9-6.3,8.1-7.2,10.4C55.6,56.1,55.1,56.4,54.6,56.4z"/>
	</g>
</g>
</svg>
