<?xml version="1.0" encoding="UTF-8" standalone="no"?>
<svg
   xmlns:dc="http://purl.org/dc/elements/1.1/"
   xmlns:cc="http://creativecommons.org/ns#"
   xmlns:rdf="http://www.w3.org/1999/02/22-rdf-syntax-ns#"
   xmlns:svg="http://www.w3.org/2000/svg"
   xmlns="http://www.w3.org/2000/svg"
   xmlns:sodipodi="http://sodipodi.sourceforge.net/DTD/sodipodi-0.dtd"
   xmlns:inkscape="http://www.inkscape.org/namespaces/inkscape"
   version="1.1"
   id="Selected_Items"
   x="0px"
   y="0px"
   viewBox="0 0 208 208"
   style="enable-background:new 0 0 208 208;"
   xml:space="preserve"
   sodipodi:docname="wP.svg"
   inkscape:version="1.0.1 (c497b03c, 2020-09-10)"><metadata
   id="metadata889"><rdf:RDF><cc:Work
       rdf:about=""><dc:format>image/svg+xml</dc:format><dc:type
         rdf:resource="http://purl.org/dc/dcmitype/StillImage" /><dc:title></dc:title></cc:Work></rdf:RDF></metadata><defs
   id="defs887" /><sodipodi:namedview
   pagecolor="#ffffff"
   bordercolor="#666666"
   borderopacity="1"
   objecttolerance="10"
   gridtolerance="10"
   guidetolerance="10"
   inkscape:pageopacity="0"
   inkscape:pageshadow="2"
   inkscape:window-width="1440"
   inkscape:window-height="847"
   id="namedview885"
   showgrid="false"
   inkscape:zoom="3.2067308"
   inkscape:cx="78.74063"
   inkscape:cy="104"
   inkscape:window-x="0"
   inkscape:window-y="25"
   inkscape:window-maximized="0"
   inkscape:current-layer="g882" />
<style
   type="text/css"
   id="style833">
	.st0{fill-rule:evenodd;clip-rule:evenodd;fill:url(#SVGID_1_);}
	.st1{fill-rule:evenodd;clip-rule:evenodd;fill:url(#SVGID_2_);}
	.st2{fill-rule:evenodd;clip-rule:evenodd;fill:url(#SVGID_3_);}
	.st3{fill-rule:evenodd;clip-rule:evenodd;fill:url(#SVGID_4_);}
	.st4{fill-rule:evenodd;clip-rule:evenodd;fill:url(#SVGID_5_);}
	
		.st5{fill-rule:evenodd;clip-rule:evenodd;fill:none;stroke:#666666;stroke-width:2.5;stroke-linecap:round;stroke-linejoin:round;stroke-miterlimit:3;}
</style>
<g
   id="g882">
	<linearGradient
   id="SVGID_1_"
   gradientUnits="userSpaceOnUse"
   x1="56.3272"
   y1="88.4901"
   x2="151.4658"
   y2="88.4901">
		<stop
   offset="0"
   style="stop-color:#835f45;stop-opacity:1"
   id="stop835" />
		<stop
   offset="0.4863"
   style="stop-color:#e9c3a6;stop-opacity:1"
   id="stop837" />
		<stop
   offset="1"
   style="stop-color:#835f45;stop-opacity:1"
   id="stop839" />
	</linearGradient>
	<path
   class="st0"
   d="M101.3,80c2.4-0.3,4.7-0.3,6.9-0.1c15.4,0.1,29.9,3.4,43.4,9.9v2.3c-29.6,6.7-61.3,6.7-95.1,0v-2.3   C72.1,83.9,87.1,80.6,101.3,80z"
   id="path842" />
	
		<radialGradient
   id="SVGID_2_"
   cx="92.4232"
   cy="56.4457"
   r="10.8248"
   gradientTransform="matrix(2.7536 0 0 2.7982 -150.6362 -102.8211)"
   gradientUnits="userSpaceOnUse">
		<stop
   offset="9.803920e-02"
   style="stop-color:#e9c3a6;stop-opacity:1"
   id="stop844" />
		<stop
   offset="0.9412"
   style="stop-color:#835f45;stop-opacity:1"
   id="stop846" />
	</radialGradient>
	<path
   class="st1"
   d="M107.9,79.9c-2.2-0.2-4.5-0.1-6.9,0.1c-6.6-0.6-12.3-3.2-17.1-7.6c-5.7-4.9-8.5-10.6-8.5-17.3   c0-6.9,2.8-12.7,8.5-17.5c5.5-5,12.2-7.4,20-7.4c7.8,0,14.5,2.5,20.1,7.4c5.7,4.8,8.6,10.6,8.7,17.5c-0.1,6.7-3,12.5-8.7,17.3   C119.4,76.5,114,79,107.9,79.9z"
   id="path849" />
	<linearGradient
   id="SVGID_3_"
   gradientUnits="userSpaceOnUse"
   x1="68.7535"
   y1="153.3589"
   x2="138.9709"
   y2="153.3589">
		<stop
   offset="0"
   style="stop-color:#835f45;stop-opacity:1"
   id="stop851" />
		<stop
   offset="0.4863"
   style="stop-color:#e9c3a6;stop-opacity:1"
   id="stop853" />
		<stop
   offset="1"
   style="stop-color:#835f45;stop-opacity:1"
   id="stop855" />
	</linearGradient>
	<polygon
   class="st2"
   points="146.5,160.2 61.5,160.2 68.6,146.5 139,146.5  "
   id="polygon858" />
	<linearGradient
   id="SVGID_4_"
   gradientUnits="userSpaceOnUse"
   x1="54.2283"
   y1="168.9853"
   x2="153.6343"
   y2="168.9853">
		<stop
   offset="0"
   style="stop-color:#835f45;stop-opacity:1"
   id="stop860" />
		<stop
   offset="0.4863"
   style="stop-color:#e9c3a6;stop-opacity:1"
   id="stop862" />
		<stop
   offset="1"
   style="stop-color:#835f45;stop-opacity:1"
   id="stop864" />
	</linearGradient>
	<polygon
   class="st3"
   points="62.1,160.2 147.2,160.2 153.8,160.2 153.8,177.8 54.2,177.8 54.2,160.2  "
   id="polygon867" />
	<linearGradient
   id="SVGID_5_"
   gradientUnits="userSpaceOnUse"
   x1="82.5223"
   y1="122.1735"
   x2="125.7542"
   y2="122.1735">
		<stop
   offset="0"
   style="stop-color:#835f45;stop-opacity:1"
   id="stop869" />
		<stop
   offset="0.4863"
   style="stop-color:#e9c3a6;stop-opacity:1"
   id="stop871" />
		<stop
   offset="1"
   style="stop-color:#835f45;stop-opacity:1"
   id="stop873" />
	</linearGradient>
	<path
   class="st4"
   d="M132.6,146.4l-57.3,0l7.2-48.5c15.5,1.7,29.9,1.7,43.2,0L132.6,146.4z"
   id="path876" />
	<path
   class="st5"
   d="M108.2,79.9c15.4,0.1,29.9,3.4,43.4,9.9v2.3c-29.6,6.7-61.3,6.7-95.1,0v-2.3c15.7-6,30.7-9.2,44.9-9.8   C103.7,79.8,106,79.7,108.2,79.9z"
   id="path878" />
	<path
   class="st5"
   d="M101.9,80c-6.6-0.6-12.3-3.2-17.1-7.6c-5.7-4.9-8.5-10.6-8.5-17.3c0-6.9,2.8-12.7,8.5-17.5   c5.5-5,12.2-7.4,20-7.4c7.8,0,14.5,2.5,20.1,7.4c5.7,4.8,8.6,10.6,8.7,17.5c-0.1,6.7-3,12.5-8.7,17.3c-4.6,4-10,6.5-16.1,7.4    M147.2,160.2l6.6,0l0,17.6l-99.5,0l0-17.6l7.8,0l7.2-13.6l70.4,0L147.2,160.2z M133.4,146.4l-57.3,0l7.2-48.5   c15.5,1.7,29.9,1.7,43.2,0L133.4,146.4z M62.1,160.2l85.1,0"
   id="path880" />
</g>
</svg>
