<?xml version="1.0" encoding="utf-8"?>
<!-- Generator: Adobe Illustrator 19.2.0, SVG Export Plug-In . SVG Version: 6.00 Build 0)  -->
<svg version="1.1" id="Layer_1" xmlns="http://www.w3.org/2000/svg" xmlns:xlink="http://www.w3.org/1999/xlink" x="0px" y="0px"
	 viewBox="0 0 208 208" style="enable-background:new 0 0 208 208;" xml:space="preserve">
<style type="text/css">
	.st0{display:none;fill:url(#SVGID_1_);}
	.st1{display:none;}
	.st2{display:inline;fill:#5C5F61;}
	.st3{fill:url(#SVGID_2_);}
	.st4{fill:none;stroke:#5C5F61;stroke-width:2.5;stroke-miterlimit:10;}
	.st5{fill:url(#SVGID_3_);}
	.st6{fill:url(#SVGID_4_);}
	.st7{fill:url(#SVGID_5_);}
	.st8{fill:none;}
</style>
<radialGradient id="SVGID_1_" cx="103.7" cy="150" r="27.0069" gradientTransform="matrix(1 0 0 -1 0 210)" gradientUnits="userSpaceOnUse">
	<stop  offset="0" style="stop-color:#E3BCA1"/>
	<stop  offset="0.1744" style="stop-color:#DBB499"/>
	<stop  offset="0.4494" style="stop-color:#C49D82"/>
	<stop  offset="0.7886" style="stop-color:#9F785E"/>
	<stop  offset="1" style="stop-color:#855E44"/>
</radialGradient>
<ellipse class="st0" cx="103.7" cy="60" rx="29.3" ry="24.5"/>
<g class="st1">
	<path class="st2" d="M103.7,85.9C86.8,85.9,73,74.2,73,60s13.8-25.9,30.7-25.9s30.7,11.6,30.7,25.9S120.6,85.9,103.7,85.9z
		 M103.7,36.9c-15.4,0-27.9,10.4-27.9,23.1s12.5,23.1,27.9,23.1s27.9-10.4,27.9-23.1S119.1,36.9,103.7,36.9z"/>
</g>
<g>
	<g>
		<g>
			
				<linearGradient id="SVGID_2_" gradientUnits="userSpaceOnUse" x1="48.7" y1="163.85" x2="156.4281" y2="163.85" gradientTransform="matrix(1 0 0 -1 0 210)">
				<stop  offset="0" style="stop-color:#855E42"/>
				<stop  offset="0.4863" style="stop-color:#E9C2A6"/>
				<stop  offset="0.9765" style="stop-color:#855E42"/>
			</linearGradient>
			<path class="st3" d="M155.2,39.5c0.3-0.5,0.5-1.3,0.5-1.9V26.4c0-0.5-0.4-1-1-1h-20.8c-0.6,0-1,0.5-1,1v11.2c0,0.5-0.4,1-1,1
				h-16.2c-0.6,0-1-0.5-1-1V26.4c0-0.5-0.4-1-1-1H93.4c-0.6,0-1,0.5-1,1v11.2c0,0.5-0.4,1-1,1H74.3c-0.6,0-1-0.5-1-1V26.4
				c0-0.5-0.4-1-1-1H49.7c-0.5,0-1,0.5-1,1v11.2c0,0.5,0.3,1.4,0.6,1.8l20.6,26.7c0.3,0.4,1.1,0.8,1.6,0.8h66.3
				c0.6,0,1.2-0.4,1.5-0.9L155.2,39.5z"/>
			<path class="st4" d="M155.2,39.5c0.3-0.5,0.5-1.3,0.5-1.9V26.4c0-0.5-0.4-1-1-1h-20.8c-0.6,0-1,0.5-1,1v11.2c0,0.5-0.4,1-1,1
				h-16.2c-0.6,0-1-0.5-1-1V26.4c0-0.5-0.4-1-1-1H93.4c-0.6,0-1,0.5-1,1v11.2c0,0.5-0.4,1-1,1H74.3c-0.6,0-1-0.5-1-1V26.4
				c0-0.5-0.4-1-1-1H49.7c-0.5,0-1,0.5-1,1v11.2c0,0.5,0.3,1.4,0.6,1.8l20.6,26.7c0.3,0.4,1.1,0.8,1.6,0.8h66.3
				c0.6,0,1.2-0.4,1.5-0.9L155.2,39.5z"/>
		</g>
		<g>
			
				<linearGradient id="SVGID_3_" gradientUnits="userSpaceOnUse" x1="70.9736" y1="102.5507" x2="139.3677" y2="102.5507" gradientTransform="matrix(1 0 0 -1 0 210)">
				<stop  offset="0" style="stop-color:#855E42"/>
				<stop  offset="0.4863" style="stop-color:#E9C2A6"/>
				<stop  offset="0.9765" style="stop-color:#855E42"/>
			</linearGradient>
			<path class="st5" d="M138.8,67.9c0-0.6-0.4-1-1-1H71.5c-0.6,0-1,0.4-1,1V147c0,0.6,0.4,1,1,1l66.3-0.1c0.6,0,1-0.5,1-1V67.9z"/>
			<path class="st4" d="M138.8,67.9c0-0.6-0.4-1-1-1H71.5c-0.6,0-1,0.4-1,1V147c0,0.6,0.4,1,1,1l66.3-0.1c0.6,0,1-0.5,1-1V67.9z"/>
		</g>
		<g>
			
				<linearGradient id="SVGID_4_" gradientUnits="userSpaceOnUse" x1="58.8704" y1="54.8" x2="149.8404" y2="54.8" gradientTransform="matrix(1 0 0 -1 0 210)">
				<stop  offset="0" style="stop-color:#855E42"/>
				<stop  offset="0.4863" style="stop-color:#E9C2A6"/>
				<stop  offset="0.9765" style="stop-color:#855E42"/>
			</linearGradient>
			<path class="st6" d="M148.6,148.9c-0.1-0.5-0.6-1-1.2-1h-7.6c-0.6,0-1.4,0-2,0L71.5,148c-0.6,0-1.4,0-2,0h-7.1
				c-0.5,0-1.1,0.4-1.3,1l-3.6,12.6c-0.1,0.5,0.2,1,0.7,1h91.8c0.6,0,0.9-0.4,0.8-1L148.6,148.9z"/>
			<path class="st4" d="M148.6,148.9c-0.1-0.5-0.6-1-1.2-1h-7.6c-0.6,0-1.4,0-2,0L71.5,148c-0.6,0-1.4,0-2,0h-7.1
				c-0.5,0-1.1,0.4-1.3,1l-3.6,12.6c-0.1,0.5,0.2,1,0.7,1h91.8c0.6,0,0.9-0.4,0.8-1L148.6,148.9z"/>
		</g>
		<g>
			
				<linearGradient id="SVGID_5_" gradientUnits="userSpaceOnUse" x1="46.4" y1="37.45" x2="161.6" y2="37.45" gradientTransform="matrix(1 0 0 -1 0 210)">
				<stop  offset="0" style="stop-color:#855E42"/>
				<stop  offset="0.4863" style="stop-color:#E9C2A6"/>
				<stop  offset="0.9765" style="stop-color:#855E42"/>
			</linearGradient>
			<path class="st7" d="M152.1,162.5c-0.6,0-1.4,0-2,0H58.3c-0.5,0-1.5,0-2,0h-8.9c-0.5,0-1,0.4-1,1v18.1c0,0.6,0.5,1,1,1h113.2
				c0.6,0,1-0.4,1-1v-18.1c0-0.6-0.4-1-1-1H152.1z"/>
			<path class="st4" d="M152.1,162.5c-0.6,0-1.4,0-2,0H58.3c-0.5,0-1.5,0-2,0h-8.9c-0.5,0-1,0.4-1,1v18.1c0,0.6,0.5,1,1,1h113.2
				c0.6,0,1-0.4,1-1v-18.1c0-0.6-0.4-1-1-1H152.1z"/>
		</g>
	</g>
</g>
<rect x="46.1" y="181" class="st8" width="115.7" height="2.7"/>
</svg>
